HIERARCHY
ROOT root
{
	OFFSET 0.000000 0.000000 0.000000
	CHANNELS 6 Xposition Yposition Zposition Zrotation Yrotation Xrotation
	JOINT lhip
	{
		OFFSET 0.058581 -0.082280 -0.017664
		CHANNELS 3 Zrotation Yrotation Xrotation
		JOINT lknee
		{
			OFFSET 0.043451 -0.386469 0.008037
			CHANNELS 3 Zrotation Yrotation Xrotation
			JOINT lankle
			{
				OFFSET -0.014790 -0.426874 -0.037428
				CHANNELS 3 Zrotation Yrotation Xrotation
				JOINT ltoe
				{
					OFFSET 0.041054 -0.060286 0.122042
					CHANNELS 3 Zrotation Yrotation Xrotation
					End Site
					{
						OFFSET 0.000000 0.000000 0.000000
					}
				}
			}
		}
	}
	JOINT rhip
	{
		OFFSET -0.060310 -0.090513 -0.013543
		CHANNELS 3 Zrotation Yrotation Xrotation
		JOINT rknee
		{
			OFFSET -0.043257 -0.383688 -0.004843
			CHANNELS 3 Zrotation Yrotation Xrotation
			JOINT rankle
			{
				OFFSET 0.019056 -0.420046 -0.034562
				CHANNELS 3 Zrotation Yrotation Xrotation
				JOINT rtoe
				{
					OFFSET -0.034840 -0.062106 0.130323
					CHANNELS 3 Zrotation Yrotation Xrotation
					End Site
					{
						OFFSET 0.000000 0.000000 0.000000
					}
				}
			}
		}
	}
	JOINT lowerback
	{
		OFFSET 0.004439 0.124404 -0.038385
		CHANNELS 3 Zrotation Yrotation Xrotation
		JOINT upperback
		{
			OFFSET 0.004488 0.137956 0.026820
			CHANNELS 3 Zrotation Yrotation Xrotation
			JOINT chest
			{
				OFFSET -0.002265 0.056032 0.002855
				CHANNELS 3 Zrotation Yrotation Xrotation
				JOINT lowerneck
				{
					OFFSET -0.013390 0.211636 -0.033468
					CHANNELS 3 Zrotation Yrotation Xrotation
					JOINT upperneck
					{
						OFFSET 0.010113 0.088937 0.050410
						CHANNELS 3 Zrotation Yrotation Xrotation
						End Site
						{
							OFFSET 0.000000 0.000000 0.000000
						}
					}
				}
				JOINT lclavicle
				{
					OFFSET 0.071702 0.114000 -0.018898
					CHANNELS 3 Zrotation Yrotation Xrotation
					JOINT lshoulder
					{
						OFFSET 0.122921 0.045205 -0.019046
						CHANNELS 3 Zrotation Yrotation Xrotation
						JOINT lelbow
						{
							OFFSET 0.255332 -0.015649 -0.022946
							CHANNELS 3 Zrotation Yrotation Xrotation
							JOINT lwrist
							{
								OFFSET 0.265709 0.012698 -0.007375
								CHANNELS 3 Zrotation Yrotation Xrotation
								End Site
								{
									OFFSET 0.000000 0.000000 0.000000
								}
							}
						}
					}
				}
				JOINT rclavicle
				{
					OFFSET -0.082954 0.112472 -0.023707
					CHANNELS 3 Zrotation Yrotation Xrotation
					JOINT rshoulder
					{
						OFFSET -0.113228 0.046853 -0.008472
						CHANNELS 3 Zrotation Yrotation Xrotation
						JOINT relbow
						{
							OFFSET -0.260127 -0.014369 -0.031269
							CHANNELS 3 Zrotation Yrotation Xrotation
							JOINT rwrist
							{
								OFFSET -0.269108 0.006794 -0.006027
								CHANNELS 3 Zrotation Yrotation Xrotation
								End Site
								{
									OFFSET 0.000000 0.000000 0.000000
								}
							}
						}
					}
				}
			}
		}
	}
}
MOTION
Frames: 17
Frame Time: 0.033333
1.016289 0.806056 1.253388 124.566141 -1.922420 83.825283 2.580253 -6.919276 -18.650377 -4.554086 -2.908231 31.721503 -1.448564 7.203743 8.945177 0.000000 -0.000000 0.000000 1.052739 1.044372 -8.389495 -0.586145 4.273456 21.720401 9.252311 -3.651279 16.276338 0.000000 -0.000000 0.000000 -2.800972 3.471728 7.605737 3.690833 -4.155631 -2.527434 1.299140 -1.595823 2.649047 -0.469605 4.412854 10.366132 8.979256 6.493279 6.123261 -19.954804 -6.143177 4.067109 -48.642592 -12.360323 16.769669 -8.249086 -59.200433 22.910091 11.374531 -12.734589 -7.909847 20.541271 -1.757957 5.125219 57.348538 -10.500361 15.448792 -10.971168 50.870844 5.718835 -2.054844 6.622598 -6.646128 
1.023605 0.811109 1.230303 135.510430 -1.607007 82.825149 2.626739 -7.067701 -17.126884 -4.547513 -1.909791 35.608786 -0.449198 9.371116 11.798657 0.000000 -0.000000 0.000000 0.988524 1.653767 -7.055023 0.117491 5.638378 21.525018 9.884568 -3.065133 14.524403 0.000000 -0.000000 0.000000 -4.181396 3.809025 6.900165 3.849029 -4.202695 -2.203251 1.362545 -1.389035 2.573029 -0.100456 4.898135 10.551497 8.806864 5.818995 5.539697 -18.092304 -5.264528 4.022285 -42.556751 -10.968529 14.351261 -7.461446 -59.248230 20.041942 10.886140 -13.128482 -7.161203 20.532128 -1.648825 4.403685 56.125738 -11.306784 15.644178 -10.714792 49.357618 5.285531 -0.282612 6.550762 -5.455843 
1.032732 0.818805 1.197575 145.526044 -1.473608 81.971002 2.725870 -7.081896 -14.221041 -5.376227 -2.147325 37.164634 -0.459713 11.271082 13.191171 0.000000 -0.000000 0.000000 0.788462 1.496980 -5.541326 1.393536 6.310584 20.859701 12.836771 -1.437658 15.288274 0.000000 -0.000000 0.000000 -6.224484 4.476709 5.281744 4.096131 -4.480538 -1.165611 1.281625 -1.473553 2.814388 0.861589 6.178179 10.661123 8.193843 4.050650 4.874882 -15.419720 -3.621129 3.963848 -38.003531 -9.740650 12.516222 -7.269026 -58.257546 17.286162 11.145604 -13.118926 -7.727314 20.674665 -2.502137 3.202956 55.276790 -11.127904 16.155800 -10.504727 47.641838 5.339952 1.722451 6.284045 -4.837975 
1.042128 0.828876 1.155218 154.259103 -0.929952 81.339010 3.311470 -5.942150 -10.060332 -6.075084 -4.250244 35.767121 -0.594553 12.416259 14.146004 0.000000 -0.000000 0.000000 1.574219 1.069135 -4.970679 2.898949 7.257890 21.967353 13.652108 -0.334057 17.586051 0.000000 -0.000000 0.000000 -8.085235 4.800775 3.668926 4.480705 -4.429470 -0.407556 1.607985 -1.536823 2.899632 1.651480 7.040972 11.048429 7.913118 2.922489 4.262183 -13.560048 -2.316184 4.491252 -34.422519 -7.019175 11.144779 -8.458030 -57.054539 16.905651 11.612985 -13.286203 -7.596541 20.451216 -3.013023 2.974425 54.781453 -10.746710 15.886914 -9.454169 46.691189 5.982147 0.315821 6.091006 -4.099479 
1.047809 0.839868 1.102020 163.690939 -0.175352 80.558712 3.076486 -6.263982 -5.697796 -5.939906 -9.332011 33.354420 -1.471278 11.983954 14.962508 0.000000 -0.000000 0.000000 2.240454 -0.097394 -4.716401 2.404792 4.134884 23.210127 12.359173 -3.878932 21.706870 0.000000 -0.000000 0.000000 -9.524863 4.964962 2.913126 4.779426 -4.375957 0.525895 2.083160 -1.967968 2.784496 1.631855 6.977154 11.915559 7.887948 3.154297 3.351410 -12.440128 -1.554379 5.777229 -32.658746 -4.845996 10.454782 -10.298153 -55.777499 17.309904 11.933198 -13.296110 -8.210665 19.943948 -3.169788 2.536877 55.109126 -10.925801 15.771682 -10.371745 46.428627 3.993949 -0.139574 5.839949 -4.545507 
1.047600 0.849209 1.037812 173.400336 0.613180 79.949953 2.511488 -7.324218 -2.468698 -7.605888 -15.755483 34.150496 -3.707122 10.513520 9.084305 0.000000 -0.000000 0.000000 2.269283 0.591538 -5.068874 3.847504 4.170012 28.385609 7.016631 -4.966853 10.395444 0.000000 -0.000000 0.000000 -9.172623 4.339761 3.256795 4.404268 -4.256426 1.174211 1.335985 -2.156764 2.876156 2.464821 8.115779 12.166665 7.026935 1.889368 2.882982 -12.132975 -0.937445 6.577490 -32.189956 -2.848693 10.296971 -11.691922 -54.354289 19.644627 10.325232 -13.465328 -9.114918 19.996421 -3.224731 2.248576 55.635585 -10.351633 14.725612 -10.623386 46.411878 4.859151 1.006787 5.427283 -5.995620 
1.043033 0.854383 0.973646 -177.117609 2.026700 78.248816 1.208739 -8.120272 -1.476633 -8.604930 -18.930774 42.390678 2.287199 14.705200 -18.354545 0.000000 -0.000000 0.000000 2.746282 1.426747 -6.968869 5.219596 1.985386 42.600658 7.728603 -5.128201 -11.868288 0.000000 -0.000000 0.000000 -7.085860 3.674424 7.387553 4.166262 -3.813577 -0.485507 0.250327 -2.331855 2.948640 4.339241 8.561941 13.868895 4.792412 0.933758 1.670065 -13.449918 -0.872900 7.330246 -34.044352 -1.485846 9.287950 -12.004939 -51.168372 21.643896 10.882510 -12.406895 -10.918923 21.010416 -2.272183 0.901794 55.594394 -10.021043 13.824711 -11.343472 43.685174 4.755353 -3.373757 5.588301 -5.285525 
1.040965 0.854538 0.927180 -170.279889 2.794965 77.324461 1.638762 -8.540343 -2.199139 -8.415023 -18.055015 45.497595 4.329691 17.239797 -35.168776 0.000000 -0.000000 0.000000 4.013353 1.271397 -5.978594 5.298556 0.302289 46.689595 5.016866 -10.016521 -29.850000 0.000000 -0.000000 0.000000 -5.797198 3.848275 10.324330 3.245532 -2.784822 -1.364596 0.032884 -2.127764 4.131789 5.077697 8.246742 12.538980 3.682069 0.653930 2.948790 -15.972935 0.525874 6.816403 -37.133594 -2.375366 7.537175 -9.814493 -46.823552 20.041562 8.102667 -11.025860 -11.638304 22.699438 -1.990493 -0.206540 56.024100 -6.165009 12.349607 -12.271794 38.084203 3.429270 -2.428865 4.320827 -3.746495 
1.039996 0.849058 0.898053 -166.522014 2.161858 78.835172 0.837370 -10.060906 -6.861667 -8.570627 -16.993952 51.448771 5.022366 18.244633 -43.230630 0.000000 -0.000000 0.000000 5.653558 2.981680 -9.939855 2.044663 -1.299726 52.130491 3.896474 -16.263895 -37.660065 0.000000 -0.000000 0.000000 -6.138874 4.405561 10.820147 2.546572 -1.222062 -2.189881 -0.389531 -1.728377 4.102913 5.365542 7.245384 13.112403 3.170386 1.515009 3.121732 -18.432505 1.703382 7.423053 -40.628995 -2.093025 6.646262 -5.705746 -44.183312 18.891000 6.183284 -10.313978 -10.333862 23.850943 -0.560720 0.849559 57.275241 -3.216631 12.210217 -13.132139 34.690568 3.968430 -0.089624 4.184206 -3.731799 
1.038356 0.845677 0.889993 -163.656966 1.540217 77.818394 0.024320 -15.106224 -8.912643 -9.924788 -13.666734 54.965803 3.695108 17.881331 -41.203469 0.000000 -0.000000 0.000000 5.962121 6.482237 -10.698497 -0.196130 -3.738046 55.839841 5.561733 -19.142670 -38.575982 0.000000 -0.000000 0.000000 -6.058265 5.125799 13.754616 1.885559 -0.495425 -1.531752 -0.685997 -1.164270 3.786191 5.541129 6.813881 13.185630 3.110875 2.022224 3.081924 -20.495188 0.689343 7.637731 -45.845361 -2.066478 7.768241 1.000799 -39.504313 11.695825 7.754049 -9.909403 -9.879638 23.416907 1.508971 0.726618 60.177487 -1.449524 13.914582 -15.264308 33.208067 2.727144 -0.509833 3.369992 -4.305282 
1.037018 0.843631 0.892630 -160.268677 1.652635 77.819794 -0.161181 -12.844194 -8.289178 -9.368169 -16.770350 52.965836 4.341604 16.023589 -43.093335 0.000000 -0.000000 0.000000 5.605025 4.021803 -9.786026 -1.130814 -4.388396 54.490379 4.776356 -18.611638 -38.658738 0.000000 -0.000000 0.000000 -5.564849 5.183384 13.982384 1.195040 -0.844823 -0.071130 -0.604887 -1.452753 3.626157 5.124934 6.504673 13.039889 3.231972 2.862237 3.757404 -21.684004 -0.698930 8.626508 -50.730073 -1.888158 6.669599 4.106187 -36.021469 9.181637 8.778548 -8.737529 -11.171475 22.814274 3.540026 1.319508 62.509115 -0.257122 13.071563 -15.159844 33.412792 3.015467 -0.050057 3.157512 -4.225303 
1.036237 0.841238 0.902883 -158.321436 1.584129 79.623195 0.264854 -14.533686 -10.129818 -9.787594 -17.075866 51.402018 3.539465 15.024645 -40.480805 0.000000 -0.000000 0.000000 4.794300 4.091111 -10.426063 -1.103068 -5.778646 51.731675 4.830629 -18.220566 -37.253202 0.000000 -0.000000 0.000000 -5.575852 5.078551 12.516903 1.086246 -1.218717 -0.186651 -0.959450 -1.703967 3.759595 5.585879 6.845360 12.575926 3.033072 2.441233 4.190727 -22.795234 -0.633136 8.808199 -53.904533 -2.442838 7.832079 6.178892 -32.248777 8.177264 9.681771 -8.955885 -11.298541 23.537340 2.954244 1.024993 64.174642 1.307968 13.913175 -15.144771 31.521005 4.122421 -0.001641 2.507336 -5.755331 
1.036435 0.839866 0.919067 -158.548141 1.526670 80.177784 0.309639 -14.652004 -8.915032 -8.202053 -17.184881 47.151096 3.210569 13.606612 -37.157641 0.000000 -0.000000 0.000000 5.065792 4.454541 -9.008198 -1.542224 -5.785021 47.440292 4.346351 -17.517398 -34.710554 0.000000 -0.000000 0.000000 -5.552785 5.400044 12.549694 0.810206 -0.913514 -0.367576 -0.802578 -1.594386 3.322111 5.371270 6.841792 12.507299 3.261705 2.592531 4.230739 -23.146536 -0.191093 8.615689 -57.446792 -3.015243 8.067455 8.656882 -29.893427 7.028999 9.540119 -8.230567 -10.844149 23.533044 2.724456 1.289175 66.608047 1.634754 14.028085 -15.945138 30.166114 3.569881 -0.920736 1.609230 -6.234357 
1.035173 0.838345 0.932391 -159.819860 1.353480 81.799268 0.165177 -14.435566 -8.126862 -6.612127 -18.144646 42.461080 3.300913 13.604798 -34.829995 0.000000 -0.000000 0.000000 5.297923 4.710728 -9.040517 -1.619116 -4.319485 43.568959 4.063478 -17.087671 -33.212050 0.000000 -0.000000 0.000000 -5.713290 5.490649 10.807034 0.608759 -0.461207 -0.344219 -0.526025 -1.330976 3.554939 5.102024 6.589908 11.758354 3.595975 2.759589 4.857374 -22.972085 0.220092 8.232950 -60.789871 -3.841347 8.520451 10.054147 -28.166720 4.407049 11.970441 -7.120842 -12.397894 23.161943 2.618155 1.646788 67.762836 1.458728 14.711197 -15.353973 29.161916 4.194507 -1.351233 1.248164 -6.393379 
1.034006 0.835860 0.943995 -161.363255 1.267487 83.159322 -0.232158 -15.418607 -7.233134 -5.656615 -19.160911 38.675917 3.776538 15.177512 -32.433201 0.000000 -0.000000 0.000000 5.092976 5.351798 -9.125890 -1.269251 -3.666406 40.127432 3.460479 -16.802689 -31.056755 0.000000 -0.000000 0.000000 -5.560753 4.941450 10.395140 0.226973 -0.412110 -1.605998 -0.403776 -1.148403 3.803663 4.870674 6.299307 11.169671 3.863385 2.879108 5.166974 -23.225628 0.431837 8.170110 -62.306570 -3.836880 9.545073 10.699467 -27.380168 3.181788 14.183562 -6.268951 -13.690617 23.066935 2.845361 2.143385 68.224227 1.348357 15.508074 -14.247974 27.082264 4.746762 -4.022299 1.124260 -6.730883 
1.031533 0.835320 0.952519 -163.086299 1.387283 83.746895 -0.221176 -14.543145 -6.304611 -4.524572 -19.681678 35.828729 4.221262 14.710069 -30.340144 0.000000 -0.000000 0.000000 4.905223 4.730354 -8.281777 -1.081277 -2.746032 36.850573 2.956344 -15.163279 -28.932238 0.000000 -0.000000 0.000000 -4.956078 4.564204 10.232553 0.100110 -0.594344 -1.748230 -0.326049 -0.966330 3.391946 4.458764 5.996446 11.440253 4.162438 3.168794 4.991367 -23.562782 0.168341 8.011739 -63.208303 -3.568625 9.813384 10.923603 -26.725747 4.331685 12.713712 -6.120765 -12.433635 22.810044 3.102653 2.584753 68.573526 0.920551 14.717359 -14.408581 25.024027 5.158643 -2.304908 0.372886 -5.947221 
1.030690 0.833569 0.957413 -165.807396 1.710991 84.105314 0.517361 -12.710343 -5.573398 -3.681507 -19.099763 33.301503 4.329717 13.943062 -29.450022 0.000000 -0.000000 0.000000 5.132438 4.412276 -7.927002 -0.935075 -1.434013 34.699149 2.433475 -13.416932 -27.673098 0.000000 -0.000000 0.000000 -4.281203 4.406800 10.181756 0.206335 -0.388151 -1.173180 -0.085357 -0.946488 2.732368 4.284316 5.794583 11.590163 4.399117 3.331130 5.104003 -23.655968 -0.279633 7.361525 -63.964574 -3.388646 9.829040 10.199131 -25.905537 5.778986 9.367174 -5.824430 -11.605454 22.395046 3.875937 3.071117 68.446853 1.241323 13.849245 -14.114210 22.569410 4.274252 -1.317727 -0.313497 -6.180225 
